<svg id="Layer_1" data-name="Layer 1" xmlns="http://www.w3.org/2000/svg" viewBox="0 0 150 50"><defs><style>.cls-1{fill:#fff;}</style></defs><title>logo</title><path class="cls-1" d="M20.59,11.23A9.91,9.91,0,0,1,18,18a10.09,10.09,0,0,1-7.38,3.21A9.68,9.68,0,0,1,7,20.56a9.79,9.79,0,0,1-5.7-5.75,10.15,10.15,0,0,1-.66-3.54,9.54,9.54,0,0,1,2-5.93,9.64,9.64,0,0,1,3.49-2.9,9.69,9.69,0,0,1,4.4-1,9.76,9.76,0,0,1,7,2.78c.87.83,1.3,1.43,1.3,1.77a.39.39,0,0,1-.14.3.51.51,0,0,1-.35.13c-.21,0-.44-.16-.67-.48a8.48,8.48,0,0,0-7.08-3.67,9.26,9.26,0,0,0-1,.07L9.48,12l.07,8.28a6.2,6.2,0,0,0,1,.09,8.77,8.77,0,0,0,3-.52,8.84,8.84,0,0,0,5.28-4.79,8.81,8.81,0,0,0,.8-3H12.52a5.32,5.32,0,0,1-1.14-.1c-.13,0-.19-.16-.19-.36s.22-.44.66-.44l.82,0Z"/><path class="cls-1" d="M31.23,2v1l-.08,7.52.08,10.26h-8.4l.08-11.22-.1-6.85,0-.67Z"/><path class="cls-1" d="M34.24,17.5c.16,0,.35.13.57.37a7.89,7.89,0,0,0,2.52,1.81,7.15,7.15,0,0,0,3,.68c1.07,0,1.6-.33,1.6-1A2.43,2.43,0,0,0,41.32,18c-.37-.52-1.27-1.54-2.69-3.07a36.29,36.29,0,0,1-3.57-4.3A6.56,6.56,0,0,1,33.88,7.1,4.88,4.88,0,0,1,36.13,3a9.14,9.14,0,0,1,5.45-1.57,9.3,9.3,0,0,1,4.16.92A5.07,5.07,0,0,1,47,3.13q.51.46.51.78a.35.35,0,0,1-.14.28.42.42,0,0,1-.29.13,1.26,1.26,0,0,1-.69-.42,5.67,5.67,0,0,0-2-1.16,6.46,6.46,0,0,0-2.32-.46A2,2,0,0,0,41,2.57a.89.89,0,0,0-.43.77,2.71,2.71,0,0,0,.53,1.37,17.22,17.22,0,0,0,1.81,2.15,47.8,47.8,0,0,1,4.95,5.8,5.91,5.91,0,0,1,1,3,4.46,4.46,0,0,1-.68,2.36,5.26,5.26,0,0,1-1.86,1.83,10.66,10.66,0,0,1-5.56,1.36,9.23,9.23,0,0,1-5.32-1.56c-1.07-.74-1.6-1.31-1.6-1.72a.41.41,0,0,1,.14-.32A.46.46,0,0,1,34.24,17.5Z"/><path class="cls-1" d="M59.25,2.32l-.08,9.73.08,8.27a9.7,9.7,0,0,0,1.18.09,8.52,8.52,0,0,0,2.75-.48,8.59,8.59,0,0,0,2.5-1.3,9.21,9.21,0,0,0,1.45-1.43,11.36,11.36,0,0,0,1.2-1.74c.17-.33.36-.5.56-.5s.45.13.45.39a3.19,3.19,0,0,1-.68,1.39,11.64,11.64,0,0,1-1.49,1.76A9.53,9.53,0,0,1,63,20.85a10.05,10.05,0,0,1-2.75.4,9.73,9.73,0,0,1-3.85-.82,9.54,9.54,0,0,1-4.73-4.14,9.92,9.92,0,0,1,.06-10.06A10,10,0,0,1,67.13,4.06c.92.85,1.37,1.47,1.37,1.84a.38.38,0,0,1-.13.28.48.48,0,0,1-.31.12c-.18,0-.4-.18-.65-.54a8.33,8.33,0,0,0-3.12-2.58,9,9,0,0,0-4.08-1A4.22,4.22,0,0,0,59.25,2.32Z"/><path class="cls-1" d="M80.05,1.39a9.93,9.93,0,0,1,4.19.92,9.67,9.67,0,0,1,4.53,4.18A10.09,10.09,0,0,1,90,11.42a9.64,9.64,0,0,1-1,4.15,9.61,9.61,0,0,1-4.41,4.54,9.86,9.86,0,0,1-4.61,1.14A9.63,9.63,0,0,1,75.22,20a9.66,9.66,0,0,1-4.33-4.78,9.89,9.89,0,0,1,.45-8.67,9.71,9.71,0,0,1,4.49-4.19A9.9,9.9,0,0,1,80.05,1.39ZM79,2.31l-.08,8.93L79,18.67v1.67a4.73,4.73,0,0,0,.9.09,9.19,9.19,0,0,0,5.42-1.68,8.77,8.77,0,0,0,3.16-3.95,9.36,9.36,0,0,0,.68-3.5A8.92,8.92,0,0,0,88,6.85a8.58,8.58,0,0,0-4-3.72,9.29,9.29,0,0,0-4-.91A5.33,5.33,0,0,0,79,2.31Z"/><path class="cls-1" d="M100.64,2l-.06,7.11,0,7.47,0,3.8c.47,0,.87.06,1.22.06q4.82,0,6.45-2.24a7.06,7.06,0,0,0,1.11-3.28,72.2,72.2,0,0,0,.27-7.71l0-3.63,0-1.13c0-.47.2-.71.59-.71s.51.23.51.68c0,.27,0,.63,0,1.09l-.11,5.48c0,2.3-.08,3.87-.12,4.7a17.75,17.75,0,0,1-.28,2.32,6,6,0,0,1-2,3.57q-2,1.72-6.73,1.72a13.87,13.87,0,0,1-6.3-1.13,4.82,4.82,0,0,1-2.37-2.92,7.16,7.16,0,0,1-.37-1.95c0-.67-.06-2.7-.07-6.11L92.25,2Z"/><path class="cls-1" d="M124.83,17.58a15.22,15.22,0,0,0,2.84,1.55,17.41,17.41,0,0,0,3.28,1c.29.06.43.2.43.42s-.21.45-.63.45a10.3,10.3,0,0,1-4-1.26,29.36,29.36,0,0,1-5-3.27V17l0,2.34v1.33h-8.37v-.62l0-4.48,0-5.35,0-8.29H119c2.47,0,4.34.07,5.6.2a11.8,11.8,0,0,1,3.22.77,7.2,7.2,0,0,1,3.43,3,7.56,7.56,0,0,1-.13,8.28A7.44,7.44,0,0,1,124.83,17.58Zm-1.31-.85.66,0A7.33,7.33,0,0,0,129,15.17a6.32,6.32,0,0,0,1.89-2.47,6.63,6.63,0,0,0-.94-7.07,6.48,6.48,0,0,0-3-2.08,17.46,17.46,0,0,0-5.06-.64l-.12,9.2v3.13A18.23,18.23,0,0,0,123.52,16.73Z"/><path class="cls-1" d="M134.72,17.5c.16,0,.35.13.57.37a7.89,7.89,0,0,0,2.52,1.81,7.11,7.11,0,0,0,2.95.68c1.07,0,1.6-.33,1.6-1A2.5,2.5,0,0,0,141.8,18c-.38-.52-1.27-1.54-2.69-3.07a34.35,34.35,0,0,1-3.57-4.3,6.56,6.56,0,0,1-1.18-3.52A4.88,4.88,0,0,1,136.61,3a9.14,9.14,0,0,1,5.45-1.57,9.3,9.3,0,0,1,4.16.92,5.49,5.49,0,0,1,1.23.82q.51.46.51.78a.38.38,0,0,1-.14.28.44.44,0,0,1-.3.13,1.28,1.28,0,0,1-.68-.42,5.77,5.77,0,0,0-2-1.16,6.46,6.46,0,0,0-2.32-.46,2,2,0,0,0-1.12.29.89.89,0,0,0-.43.77,2.62,2.62,0,0,0,.53,1.37,17.22,17.22,0,0,0,1.81,2.15,48.8,48.8,0,0,1,4.95,5.8,5.9,5.9,0,0,1,.94,3,4.45,4.45,0,0,1-.67,2.36,5.21,5.21,0,0,1-1.87,1.83,10.63,10.63,0,0,1-5.56,1.36,9.22,9.22,0,0,1-5.31-1.56c-1.07-.74-1.61-1.31-1.61-1.72a.42.42,0,0,1,.15-.32A.46.46,0,0,1,134.72,17.5Z"/><path class="cls-1" d="M34,32l-.06,3.56,0,3.37,0,7.82H27L27,37.72l0-3.08L27,32l-1.5,0-2.15,0H23c-.36,0-.54-.14-.54-.41a.36.36,0,0,1,.32-.41l.55,0h14a3.59,3.59,0,0,1,.86.07.37.37,0,0,1,.23.38c0,.26-.2.39-.58.39l-1,0-2.61,0Z"/><path class="cls-1" d="M45.82,30.8a8.41,8.41,0,0,1,3.47.76A8,8,0,0,1,53,35a8.41,8.41,0,0,1,1,4.08,8.12,8.12,0,0,1-4.43,7.19,8.17,8.17,0,0,1-3.82.94,8.34,8.34,0,0,1-7.58-5A8.11,8.11,0,0,1,38.62,35a7.94,7.94,0,0,1,3.71-3.46A8.25,8.25,0,0,1,45.82,30.8Zm-.9.76L44.85,39l.06,6.15v1.38a3.93,3.93,0,0,0,.74.07,7.67,7.67,0,0,0,4.49-1.38,7.28,7.28,0,0,0,2.61-3.28A7.56,7.56,0,0,0,53.33,39a7.45,7.45,0,0,0-.95-3.68,7.08,7.08,0,0,0-3.3-3.08,7.77,7.77,0,0,0-3.35-.75A5.52,5.52,0,0,0,44.92,31.56Z"/><path class="cls-1" d="M62.86,31.27l0,5.88,0,6.18,0,3.15c.39,0,.72.05,1,.05q4,0,5.34-1.85A5.91,5.91,0,0,0,70.1,42a62.77,62.77,0,0,0,.22-6.38l0-3,0-.93c0-.39.16-.59.48-.59s.43.19.43.57c0,.22,0,.52,0,.9L71,37.05c0,1.91-.06,3.21-.1,3.89a14,14,0,0,1-.23,1.93,5,5,0,0,1-1.62,3q-1.62,1.43-5.57,1.42a11.47,11.47,0,0,1-5.21-.93,4,4,0,0,1-2-2.42A6.29,6.29,0,0,1,56,42.28C56,41.73,56,40,56,37.22l0-5.95Z"/><path class="cls-1" d="M82.88,44.21a13.36,13.36,0,0,0,2.36,1.28,14.77,14.77,0,0,0,2.71.82c.24,0,.35.16.35.34s-.17.38-.52.38A8.42,8.42,0,0,1,84.44,46a23,23,0,0,1-4.11-2.7v3.5H73.42v-.51l0-3.71,0-4.43,0-6.86H78c2,0,3.59.06,4.63.17a9.18,9.18,0,0,1,2.67.64,6,6,0,0,1,2.84,2.46A6.27,6.27,0,0,1,88,41.39,6.13,6.13,0,0,1,82.88,44.21Zm-1.08-.7h.55a6.09,6.09,0,0,0,4-1.31,5.41,5.41,0,0,0,1.56-2,5.56,5.56,0,0,0,.51-2.3,5.46,5.46,0,0,0-1.29-3.56A5.25,5.25,0,0,0,84.6,32.6a14.21,14.21,0,0,0-4.18-.54l-.1,7.62v2.59A16,16,0,0,0,81.8,43.51Z"/><path class="cls-1" d="M111,42.66c-.23.2-.46.33-.56.52a1,1,0,0,1-2-.26,9.81,9.81,0,0,1-.22-1.3,3.75,3.75,0,0,0-.31-1.63c-.19-.35.07-.94.13-1.42,0-.2.15-.42.1-.59a1.33,1.33,0,0,1,.31-1.28A3.49,3.49,0,0,1,111,35.41l.68,0,.09-.16a2.62,2.62,0,0,0-.65-.47c-.53-.17-.9-.43-.92-1a1.06,1.06,0,0,1,.87-1.06,4.91,4.91,0,0,1,.83-.24,1.24,1.24,0,0,0,1.07-.68c.13-.28.74-.47,1.12-.46a4.64,4.64,0,0,1,3.5,1.59l.16,0,0-5.91-.2-.06c-.4.41-.82.82-1.22,1.24s-.69.76-1,1.16c-.73.85-.73.85-2,.72.69-.78,1.37-1.52,2-2.3.76-.93,1.49-1.89,2.2-2.86a3.85,3.85,0,0,0,.51-1c.22-.61.37-.7.94-.38a2.64,2.64,0,0,1,.5.38c.67.62.69.92-.08,1.41a1.8,1.8,0,0,0-.93,2,18.86,18.86,0,0,1,.06,3.1c0,1-.15,2-.24,3.13a1,1,0,0,0,.24-.07,4.42,4.42,0,0,1,4.34,0,1.12,1.12,0,0,1,.71,1.19.81.81,0,0,0,.26.51c.33.34.72.63,1,1a1,1,0,0,1,.16,1.26.94.94,0,0,1-1.14.43c-.38-.08-.72-.15-1,.34a3.68,3.68,0,0,1,2.1,2.05,1.79,1.79,0,0,1-.09,1.8,2,2,0,0,0-.22.86,1.41,1.41,0,0,1-.9,1.35c-.14,0-.22.27-.32.43-.39.58-.76,1.18-1.18,1.75a.94.94,0,0,1-1.19.29,1.05,1.05,0,0,1-.65-1,4.4,4.4,0,0,0-.29-.89l-.16,0c-.25.55-.49,1.1-.77,1.63s-.74,1-1.52.79a.41.41,0,0,0-.29.1l-2.27,2a1,1,0,0,1-1.68-.46c-.34-.94-.72-1.87-1.11-2.79,0-.09-.19-.16-.31-.19a1,1,0,0,1-.84-1C111.12,44.2,111.08,43.5,111,42.66Zm.42-9.13v.2l.21.09a2,2,0,0,1,1.14,2c-.2.87-.91.55-1.46.57h-.12a2.35,2.35,0,0,0-2,1.09l.86.11a3.1,3.1,0,0,0-1.17,1.86l.72.07a4.26,4.26,0,0,1-.13.64,4,4,0,0,0,0,2.52,1.87,1.87,0,0,1,1.79-1,1.85,1.85,0,0,0,1.42-.76c.15-.19.31-.44.52-.51a1.16,1.16,0,0,1,.84,0,.79.79,0,0,1,.38.61c0,.2-.32.39-.54.51a2.07,2.07,0,0,1-.66.17,1.19,1.19,0,0,0-1,.87,3.68,3.68,0,0,0,0,2.13c1-.18,1.18,0,1.16,1a1.24,1.24,0,0,0,.12.6c.33.67.69,1.33,1,2a10.65,10.65,0,0,1,1.24-1,2.07,2.07,0,0,0,1-1c.2-.53.58-.62,1.06-.33l.31.22c1.07-1.41,1-2.19-.11-3.36-.48-.49-.4-1,.22-1.27.79-.36,1.31-.07,1.56.76a3.8,3.8,0,0,0,.75,1.55,2.94,2.94,0,0,1,1,1.73,4,4,0,0,0,1.26-2.92l.84.53L123.6,41l.6.21a2.08,2.08,0,0,0-1-1.73,6.78,6.78,0,0,0-1-.51c-.68-.33-.81-.7-.36-1.31a1.94,1.94,0,0,1,2.06-1,7.38,7.38,0,0,0-1.54-1.17c-.86-.46-.88-.44-.08-1,0,0,0-.07.06-.16a3.58,3.58,0,0,0-3.29-.12,1.1,1.1,0,0,0-.6,1.25c.16,1.08.15,1.08-.88,1.53a3.87,3.87,0,0,0-.43.27c-.16-.2-.25-.35-.36-.47-.89-.94-.67-1.09-.07-1.77a1.08,1.08,0,0,0,.06-1.33,3.33,3.33,0,0,0-3-1.36c0,.07,0,.14.07.2l.21.64c-.23,0-.46.09-.7.12Z"/><path class="cls-1" d="M100.8,40a2.58,2.58,0,0,1,1.75-4.85A2.58,2.58,0,1,1,100.8,40Z"/><path class="cls-1" d="M104.64,29.65a2.56,2.56,0,0,1-1.53-3.33,2.58,2.58,0,1,1,1.53,3.33Z"/><path class="cls-1" d="M99.85,42.05a2.58,2.58,0,1,1-1.72,4.87,2.58,2.58,0,0,1,1.72-4.87Z"/><path class="cls-1" d="M105,40.08a2.55,2.55,0,0,1,1.53,3.32,2.58,2.58,0,0,1-3.28,1.53A2.58,2.58,0,1,1,105,40.08Z"/><path class="cls-1" d="M106.54,33.51A2.55,2.55,0,0,1,103.2,35a2.58,2.58,0,0,1,1.85-4.81A2.55,2.55,0,0,1,106.54,33.51Z"/><path class="cls-1" d="M95.82,45.36A2.59,2.59,0,0,1,91,43.61a2.6,2.6,0,0,1,3.28-1.55A2.57,2.57,0,0,1,95.82,45.36Z"/><path class="cls-1" d="M97.48,37.28A2.55,2.55,0,0,1,99,40.59a2.58,2.58,0,0,1-4.84-1.76A2.55,2.55,0,0,1,97.48,37.28Z"/><path class="cls-1" d="M112.44,21.28c.15.36.27.66.38,1a1.14,1.14,0,0,1-.46,1.37.74.74,0,0,1-1.19-.29c-.32-.63-.28-1.07.21-2.12a1.78,1.78,0,0,0-2.5,1,3,3,0,0,0-.1,1.45c.1.63.56.87,1.27.89.17,0,.33.21.5.32-.15.12-.32.36-.44.33a2.15,2.15,0,0,1-1.08-.37,2.68,2.68,0,0,1,.59-4.33,2,2,0,0,1,1.92,0,.84.84,0,0,0,.57.09,1.63,1.63,0,0,1,1.94.57,3.72,3.72,0,0,1,.93,2.36c.07,2.37-.93,4.41-1.92,6.53-.44-.37-.62-.64-.33-1.18A13.63,13.63,0,0,0,114.44,24a2.51,2.51,0,0,0-.7-2.42A1.15,1.15,0,0,0,112.44,21.28Zm-.51.2c-.18.48-.34.85-.46,1.23,0,.1,0,.31.11.33A.51.51,0,0,0,112,23C112.49,22.69,112.51,22.23,111.93,21.48Z"/><path class="cls-1" d="M109,34.31a2.41,2.41,0,0,1-1.79-2.26,2.58,2.58,0,0,1,4.62-1.71c.35.46.25.73-.32.9-.33.1-.66.19-1,.32A2.24,2.24,0,0,0,109,34,2.61,2.61,0,0,1,109,34.31Z"/><path class="cls-1" d="M108.63,34.71c-.53.65-1.07,1.25-1.53,1.91a2.58,2.58,0,0,0-.25,1c-.09.55-.15,1.11-.23,1.69a2.51,2.51,0,0,1,2-4.58Z"/></svg>