<svg id="Layer_1" data-name="Layer 1" xmlns="http://www.w3.org/2000/svg" viewBox="0 0 150 50"><defs><style>.cls-1{fill:#fff;}</style></defs><title>logo</title><path class="cls-1" d="M20.91,11.05A9.93,9.93,0,0,1,11,21a9.6,9.6,0,0,1-3.55-.68,9.87,9.87,0,0,1-3.1-1.91,9.73,9.73,0,0,1-2.56-3.81,10,10,0,0,1-.66-3.52,9.53,9.53,0,0,1,2-5.9A9.7,9.7,0,0,1,6.57,2.3a9.8,9.8,0,0,1,4.39-1A9.69,9.69,0,0,1,17.89,4c.87.83,1.3,1.42,1.3,1.76a.39.39,0,0,1-.14.3.56.56,0,0,1-.35.13c-.21,0-.43-.16-.67-.48a8.44,8.44,0,0,0-7-3.65A9.26,9.26,0,0,0,10,2.16l-.09,9.69.08,8.23a5.07,5.07,0,0,0,1,.1,8.71,8.71,0,0,0,3-.52A8.75,8.75,0,0,0,19.2,14.9a8.78,8.78,0,0,0,.81-3H12.88a6.42,6.42,0,0,1-1.13-.09c-.13-.05-.19-.17-.19-.36s.22-.44.65-.44l.82,0Z"/><path class="cls-1" d="M31.49,1.82v1l-.09,7.48.09,10.19H23.13L23.22,9.3l-.1-6.81V1.82Z"/><path class="cls-1" d="M34.48,17.29a.89.89,0,0,1,.57.36,7.63,7.63,0,0,0,2.5,1.8,7.06,7.06,0,0,0,2.93.68c1.07,0,1.6-.33,1.6-1a2.47,2.47,0,0,0-.56-1.39c-.37-.51-1.26-1.53-2.67-3a35,35,0,0,1-3.55-4.27,6.53,6.53,0,0,1-1.18-3.51,4.85,4.85,0,0,1,2.24-4.11,9.07,9.07,0,0,1,5.42-1.57,9.37,9.37,0,0,1,4.14.91A5.53,5.53,0,0,1,47.14,3q.51.46.51.78a.38.38,0,0,1-.14.28.44.44,0,0,1-.3.13,1.28,1.28,0,0,1-.68-.42,5.61,5.61,0,0,0-1.94-1.15,6.37,6.37,0,0,0-2.31-.46,2,2,0,0,0-1.11.29.91.91,0,0,0-.43.76,2.71,2.71,0,0,0,.53,1.37,18.05,18.05,0,0,0,1.81,2.14A48,48,0,0,1,48,12.47a5.84,5.84,0,0,1,.94,3,4.44,4.44,0,0,1-.67,2.35,5.26,5.26,0,0,1-1.85,1.81A10.64,10.64,0,0,1,40.88,21a9.19,9.19,0,0,1-5.28-1.55c-1.07-.73-1.6-1.3-1.6-1.71a.47.47,0,0,1,.14-.32A.45.45,0,0,1,34.48,17.29Z"/><path class="cls-1" d="M59.35,2.19l-.08,9.68.08,8.21a8.11,8.11,0,0,0,1.17.1,8.42,8.42,0,0,0,2.74-.48,8.83,8.83,0,0,0,2.48-1.29A9.1,9.1,0,0,0,67.18,17a10,10,0,0,0,1.19-1.74c.18-.33.36-.49.56-.49s.45.13.45.38a3.08,3.08,0,0,1-.67,1.39,12.1,12.1,0,0,1-1.48,1.75,9.6,9.6,0,0,1-4.11,2.34,10.34,10.34,0,0,1-2.73.39,9.65,9.65,0,0,1-3.84-.82,9.4,9.4,0,0,1-4.69-4.11,9.69,9.69,0,0,1-1.34-4.95,9.92,9.92,0,0,1,5.59-8.91,10,10,0,0,1,11.07,1.7c.91.85,1.37,1.46,1.37,1.83a.36.36,0,0,1-.14.27.41.41,0,0,1-.3.13c-.18,0-.4-.18-.65-.54A8.17,8.17,0,0,0,64.36,3a9.07,9.07,0,0,0-4.06-1A4.19,4.19,0,0,0,59.35,2.19Z"/><path class="cls-1" d="M80,1.26a9.87,9.87,0,0,1,4.16.91A9.61,9.61,0,0,1,88.7,6.34a9.94,9.94,0,0,1,1.24,4.9,9.78,9.78,0,0,1-5.32,8.64A9.8,9.8,0,0,1,80,21a9.54,9.54,0,0,1-4.8-1.28A9.53,9.53,0,0,1,70.93,15a9.72,9.72,0,0,1,.45-8.63,9.63,9.63,0,0,1,4.46-4.16A9.91,9.91,0,0,1,80,1.26ZM79,2.17l-.08,8.89.07,7.39v1.66a4.67,4.67,0,0,0,.89.08,9.15,9.15,0,0,0,5.39-1.66,8.73,8.73,0,0,0,3.14-3.93,9.07,9.07,0,0,0,.68-3.48,9,9,0,0,0-1.14-4.43A8.7,8.7,0,0,0,84,3a9.37,9.37,0,0,0-4-.9A6.24,6.24,0,0,0,79,2.17Z"/><path class="cls-1" d="M100.51,1.82l-.06,7.07,0,7.43,0,3.78c.46,0,.87,0,1.21,0q4.78,0,6.42-2.22a7.13,7.13,0,0,0,1.1-3.26A75.06,75.06,0,0,0,109.46,7l0-3.62-.05-1.12c0-.47.19-.71.58-.71s.51.23.51.68c0,.27,0,.63,0,1.08l-.11,5.45c0,2.29-.08,3.85-.12,4.67a19.72,19.72,0,0,1-.27,2.32,6.1,6.1,0,0,1-2,3.55Q106,21,101.28,21A13.73,13.73,0,0,1,95,19.89,4.83,4.83,0,0,1,92.66,17a7.16,7.16,0,0,1-.37-1.94c0-.67-.06-2.69-.07-6.08l0-7.15Z"/><path class="cls-1" d="M124.55,17.37a15.71,15.71,0,0,0,2.83,1.53,16.81,16.81,0,0,0,3.27,1c.28.06.42.19.42.41s-.21.45-.63.45a10.14,10.14,0,0,1-4-1.25,28.62,28.62,0,0,1-4.93-3.25v4.2h-8.31v-.61l0-4.45.05-5.32,0-8.25h5.48c2.46,0,4.31.07,5.57.2a11.64,11.64,0,0,1,3.2.77,7.11,7.11,0,0,1,3.41,3,7.53,7.53,0,0,1-.13,8.23A7.43,7.43,0,0,1,124.55,17.37Zm-1.29-.85.65,0A7.33,7.33,0,0,0,128.66,15a6.86,6.86,0,0,0,2.49-5.22,6.55,6.55,0,0,0-1.55-4.27,6.31,6.31,0,0,0-3-2.06,16.94,16.94,0,0,0-5-.64l-.13,9.14v2.47l0,.64A16.81,16.81,0,0,0,123.26,16.52Z"/><path class="cls-1" d="M134.39,17.29a.89.89,0,0,1,.57.36,7.57,7.57,0,0,0,2.51,1.8,7,7,0,0,0,2.92.68c1.07,0,1.6-.33,1.6-1a2.47,2.47,0,0,0-.56-1.39c-.37-.51-1.26-1.53-2.67-3a35,35,0,0,1-3.55-4.27A6.53,6.53,0,0,1,134,6.94a4.85,4.85,0,0,1,2.24-4.11,9.07,9.07,0,0,1,5.42-1.57,9.37,9.37,0,0,1,4.14.91,5.53,5.53,0,0,1,1.22.82q.51.46.51.78a.38.38,0,0,1-.14.28.44.44,0,0,1-.3.13,1.28,1.28,0,0,1-.68-.42,5.61,5.61,0,0,0-1.94-1.15,6.36,6.36,0,0,0-2.3-.46,2,2,0,0,0-1.12.29.91.91,0,0,0-.43.76,2.65,2.65,0,0,0,.54,1.37A16.86,16.86,0,0,0,143,6.71a48,48,0,0,1,4.91,5.76,5.84,5.84,0,0,1,.94,3,4.52,4.52,0,0,1-.66,2.35,5.38,5.38,0,0,1-1.86,1.81A10.61,10.61,0,0,1,140.79,21a9.19,9.19,0,0,1-5.28-1.55c-1.07-.73-1.6-1.3-1.6-1.71a.47.47,0,0,1,.14-.32A.45.45,0,0,1,134.39,17.29Z"/><path class="cls-1" d="M70.58,33.07l-.06,3.69,0,3.5,0,8.12H63.33L63.4,39l0-3.19,0-2.72-1.56,0-2.23,0h-.33c-.37,0-.56-.14-.56-.43a.37.37,0,0,1,.33-.42,3.48,3.48,0,0,1,.58,0H74a4.76,4.76,0,0,1,.9.07.41.41,0,0,1,.23.41c0,.26-.2.4-.6.4l-1,0-2.71,0Z"/><path class="cls-1" d="M82.89,31.8a8.49,8.49,0,0,1,3.59.79,8.24,8.24,0,0,1,3.89,3.6,8.53,8.53,0,0,1,1.08,4.23A8.17,8.17,0,0,1,90.63,44a8.31,8.31,0,0,1-3.78,3.9,8.53,8.53,0,0,1-4,1A8.71,8.71,0,0,1,75,43.65a8.6,8.6,0,0,1-.68-3.34,8.46,8.46,0,0,1,1.07-4.11,8.33,8.33,0,0,1,3.86-3.6A8.67,8.67,0,0,1,82.89,31.8Zm-.93.79-.07,7.67L82,46.64v1.44a4.06,4.06,0,0,0,.76.07,7.92,7.92,0,0,0,4.66-1.44,7.54,7.54,0,0,0,2.71-3.39,7.8,7.8,0,0,0,.59-3,7.69,7.69,0,0,0-1-3.82,7.44,7.44,0,0,0-3.42-3.19,8,8,0,0,0-3.48-.78A4.57,4.57,0,0,0,82,32.59Z"/><path class="cls-1" d="M100.57,32.28l0,6.11,0,6.41,0,3.27c.4,0,.75,0,1,0,2.76,0,4.6-.64,5.54-1.92a6.19,6.19,0,0,0,1-2.82,63.46,63.46,0,0,0,.23-6.62l0-3.12,0-1c0-.41.16-.61.5-.61s.44.2.44.59c0,.23,0,.54,0,.93l-.09,4.7c0,2-.07,3.33-.11,4a15.05,15.05,0,0,1-.23,2A5.28,5.28,0,0,1,107,47.39c-1.12,1-3,1.47-5.77,1.47a11.84,11.84,0,0,1-5.42-1,4.17,4.17,0,0,1-2-2.51,6.32,6.32,0,0,1-.31-1.67q-.06-.87-.06-5.25l0-6.18Z"/><path class="cls-1" d="M121.34,45.71A13.73,13.73,0,0,0,123.79,47a15,15,0,0,0,2.82.85q.36.07.36.36t-.54.39A8.89,8.89,0,0,1,123,47.55a24.73,24.73,0,0,1-4.27-2.8v.48l0,2v1.15h-7.18v-.53l0-3.85,0-4.6,0-7.12h4.74a47.17,47.17,0,0,1,4.8.18,10,10,0,0,1,2.77.66,6.21,6.21,0,0,1,2.95,2.56,6.66,6.66,0,0,1,1,3.47,6.52,6.52,0,0,1-1.12,3.64A6.41,6.41,0,0,1,121.34,45.71ZM120.22,45h.57a6.32,6.32,0,0,0,4.1-1.35,5.78,5.78,0,0,0,.81-8.2,5.52,5.52,0,0,0-2.57-1.78,14.88,14.88,0,0,0-4.34-.55l-.11,7.9V43.7A15.71,15.71,0,0,0,120.22,45Z"/><path class="cls-1" d="M47.63,49.21h-5c-.49,0-.86-.15-.95-.64s.21-.8.69-1c1.35-.49,2.7-1,4.06-1.47a.53.53,0,0,0,.42-.57c0-2.15,0-4.31,0-6.46,0-.3-.09-.44-.4-.5a6.76,6.76,0,0,1-5.67-7.5,17.27,17.27,0,0,1,1.46-5.37.9.9,0,0,1,.94-.59c3,0,6.07,0,9.11,0a.85.85,0,0,1,.59.35,14.7,14.7,0,0,1,1.64,6.18,6.72,6.72,0,0,1-5.64,6.9c-.39.07-.45.24-.45.58,0,2.12,0,4.23,0,6.35a.55.55,0,0,0,.44.62c1.36.47,2.71,1,4.06,1.46.46.17.81.41.72,1s-.5.67-1,.66h-5Zm5.61-18.58a9.13,9.13,0,0,0-.18-1c-.3-1-.61-2-1-3-.05-.15-.38-.28-.58-.28-2,0-4,0-6,0-.61,0-1.23,0-1.84,0-.17,0-.42.09-.47.2A13.8,13.8,0,0,0,42,30.62h.71c2.54,0,5.08,0,7.61,0,.6,0,.7.23.74.73a4.92,4.92,0,0,1-3.6,5.31c1.16.31,3-.56,4-1.68a5.45,5.45,0,0,0,1-4.35Z"/><path class="cls-1" d="M39.72,48.78c-.35-.4-.75-.25-1.19-.21-.64,0-1.29-.06-1.93-.07a.91.91,0,0,0-.55.11,3.18,3.18,0,0,1-3.75.25.84.84,0,0,0-.52,0,11.38,11.38,0,0,1-1.48.36,2.72,2.72,0,0,1-2.68-1.47,2.86,2.86,0,0,1,0-3.16.73.73,0,0,0,0-.78,2.74,2.74,0,0,1,.52-3.26,4.14,4.14,0,0,0,1.46-2.43,2.81,2.81,0,0,1,2-1.88c0-.19,0-.34,0-.5a3.12,3.12,0,1,1,6.23-.18,1.32,1.32,0,0,0,.32.59c.38.47,1,.87,1.12,1.4a2.6,2.6,0,0,0,1.42,1.88,1.73,1.73,0,0,0,1.38.29c1.35-.36,3.69.88,3.4,2.78a5.35,5.35,0,0,0,0,1c0,.31-.1.43-.39.58a2.13,2.13,0,0,0-1,.94,1,1,0,0,1-1,.82s0,0,0,0c-.61-1-1.38-1.33-2.22-.89a1.57,1.57,0,0,0-.48,2.3.54.54,0,0,1,0,.36c-.07.45-.16.9-.26,1.42A1.2,1.2,0,0,1,39.72,48.78Zm-4.9-9.88a1.53,1.53,0,1,0,1.51-1.56A1.53,1.53,0,0,0,34.82,38.9ZM34.68,37a1.53,1.53,0,1,0-1.51-1.56A1.52,1.52,0,0,0,34.68,37Zm1.38,5.49A1.54,1.54,0,1,0,34.54,44,1.56,1.56,0,0,0,36.06,42.46Zm3.24,3.12a1.53,1.53,0,1,0-1.52,1.55A1.55,1.55,0,0,0,39.3,45.58Zm-8.82-1.51a1.52,1.52,0,0,0,0-3,1.53,1.53,0,0,0-1.54,1.52A1.51,1.51,0,0,0,30.48,44.07Zm-.19,3.62a1.54,1.54,0,1,0,0-3.07,1.54,1.54,0,0,0,0,3.07Zm3.75.1a1.53,1.53,0,0,0,1.47-1.54A1.53,1.53,0,1,0,34,47.79Zm8.49-3.5a1.5,1.5,0,0,0,1.53-1.46,1.53,1.53,0,0,0-1.48-1.58A1.5,1.5,0,0,0,41,42.75,1.47,1.47,0,0,0,42.53,44.29Zm-8.54-5a1.54,1.54,0,1,0-1.54,1.53A1.53,1.53,0,0,0,34,39.26Zm4.76,4.19a1.52,1.52,0,1,0,0-3,1.52,1.52,0,0,0,0,3Z"/><path class="cls-1" d="M23.09,45.31a1.76,1.76,0,0,0,2.06,0,1,1,0,0,0,.36-1.41.38.38,0,0,1,.17-.36.41.41,0,0,1,.37.13.94.94,0,0,1,0,1.23A4.51,4.51,0,0,1,24.48,46c-1.54.54-3.17-1-2.72-2.33a.65.65,0,0,0-.05-.43,1.74,1.74,0,0,1,.47-2.43c1.41-1.26,3.12-1.17,4.86-1.1a.66.66,0,0,1-.79.59,6.78,6.78,0,0,0-1.56,0,7,7,0,0,0-1.87.48,1.3,1.3,0,0,0-.62,1.93,8.64,8.64,0,0,1,.78-.57,1.06,1.06,0,0,1,1.42.36c.2.39,0,.87-.56,1.09a7.24,7.24,0,0,1-1.55.22A1.48,1.48,0,0,0,23.09,45.31Zm.4-2c.14,0,.27-.15.41-.23-.1-.13-.17-.31-.3-.38-.46-.24-.8-.07-1.08.51A8,8,0,0,0,23.49,43.29Z"/><path class="cls-1" d="M23.6,37.78c.13.11.26.31.43.36,1.08.33,2.17.6,3.24,1,.39.13.66.06.83-.24s-.12-.48-.37-.63c-.88-.52-1.75-1-2.6-1.61-.68-.45-.9-.42-1.25.34A5.9,5.9,0,0,0,23.6,37.78Z"/></svg>